<?xml version="1.0" encoding="UTF-8"?><svg id="katman_2" xmlns="http://www.w3.org/2000/svg" viewBox="0 0 350 50"><defs><style>.cls-1{fill:#fff;}</style></defs><g id="Layer_2"><path class="cls-1" d="M66.06,49.36l-.56-6.69h-13.62l-4.12,6.69h-14.74L58.08,10.37c.71-1.1,1.91-1.76,3.19-1.76h10.47c1.93,0,3.56,1.48,3.79,3.44l3.84,32.94c.27,2.32-1.5,4.36-3.79,4.36h-9.53ZM64.73,19.18l-8.1,14.52h8.8l-.7-14.52Z"/><path class="cls-1" d="M112.24,22.62c-1,0-1.75-.87-1.72-1.89.05-2.3-1.06-3.53-4.43-3.53-4.39,0-7.05,1.85-6.7,4.65.49,4.33,24.8,1.27,20.95,15.98-1.4,5.54-6.84,12.16-20.95,12.16-11.16,0-16.96-3.12-17.96-9.48-.49-3.12,2.15-5.86,5.24-5.86h4.85c1.83,0,3.05,1.48,3.5,3.29.44,1.79,2.03,2.75,4.73,2.75,5.1,0,6.7-1.97,7.34-4.2,1.46-5.35-24.31-1.71-21.17-16.04,1.47-6.75,6.99-12.48,21.17-12.48,9.44,0,14.45,2.88,16.15,7.53,1.26,3.45-1.42,7.12-5.03,7.12h-5.95Z"/><path class="cls-1" d="M141.64,37.58h-4.75l-1.99,7.99c-.55,2.23-2.52,3.79-4.78,3.79h-3.62c-3.23,0-5.58-3.11-4.77-6.3l7.83-30.68c.57-2.22,2.53-3.76,4.77-3.76h12.61c18.79,0,18.09,9.29,16.55,15.22-1.46,5.99-4.26,13.75-21.86,13.75ZM145.49,18.36h-3.63l-2.52,9.74h3.01c4.74,0,6.98-2.54,7.68-5.28.69-2.87-.91-4.45-4.54-4.45Z"/><path class="cls-1" d="M181.6,50c-19.14,0-20.04-11.84-17.46-21.65,2.59-10.12,8.24-20.37,25.98-20.37,19.21,0,19.91,11.84,17.39,21.72-2.51,10.06-8.03,20.31-25.91,20.31ZM189.7,18.03c-8.24-.38-10.34,4.59-11.94,10.38-1.33,4.65-3.49,11.14,4.05,11.53,8.38.51,10.47-4.59,12.08-10.31,1.4-4.59,3.56-11.21-4.19-11.59Z"/><path class="cls-1" d="M254.44,49.36h-10.93c-1.36,0-2.46-1.12-2.46-2.51l-1.5-16.9-11.09,18.05c-.42.83-1.26,1.35-2.18,1.35h-10.99c-1.3,0-2.38-1.04-2.46-2.37l-1.96-35.72c-.08-1.44,1.04-2.65,2.46-2.65h8.97c1.39,0,2.5,1.17,2.46,2.59l-.69,23.71,12.65-24.94c.42-.83,1.26-1.36,2.18-1.36h10.62c1.36,0,2.47,1.13,2.46,2.53l-.12,23.83,12.03-24.96c.41-.86,1.27-1.4,2.21-1.4h8.53c1.89,0,3.08,2.09,2.13,3.77l-20.2,35.72c-.44.78-1.25,1.26-2.13,1.26Z"/><path class="cls-1" d="M311.17,15.91c-.36,1.44-1.63,2.45-3.08,2.45h-17.37l-1.46,5.85h17.81l-1.67,6.44c-.37,1.42-1.63,2.42-3.08,2.42h-15.36l-1.61,6.55h19.77l-1.89,7.32c-.37,1.43-1.63,2.42-3.08,2.42h-26.95c-2.08,0-3.61-2.01-3.08-4.07l8.74-34.24c.37-1.43,1.63-2.43,3.08-2.43h31.06l-1.83,7.3Z"/><path class="cls-1" d="M337.57,36.18l6.74,11.13c.54.9-.09,2.05-1.12,2.05h-12.81c-.54,0-1.03-.34-1.22-.85l-5.54-14.43-3.66,14.28c-.15.59-.67,1-1.27,1h-11.11c-.86,0-1.49-.83-1.27-1.68l9.72-38.06c.15-.59.67-1,1.27-1h15.82c18.23,0,17.67,9.42,16.27,14.96-1.22,4.69-4.21,8.89-10.94,10.62-.87.22-1.34,1.2-.87,1.98ZM330.95,18.36h-3.35l-2.31,9.03h2.65c4.89,0,6.92-1.59,7.83-4.77.69-2.93-.63-4.26-4.82-4.26Z"/><path class="cls-1" d="M8.48,22.64L.22,2.15C-.19,1.13.52,0,1.56,0l21.22.05c.58,0,1.1.37,1.33.94l8.26,20.49c.41,1.02-.3,2.15-1.34,2.15l-21.22-.05c-.58,0-1.1-.37-1.33-.94Z"/><path class="cls-1" d="M22.67,49.36c.58,0,1.11-.36,1.34-.93l8.35-20.45c.08-.2.12-.41.12-.61,0-.81-.61-1.54-1.45-1.54l-21.22-.05c-.58,0-1.11.36-1.34.93L.12,47.15C.04,47.35,0,47.56,0,47.76c0,.81.61,1.54,1.45,1.54l21.22.05Z"/></g></svg>